<svg xmlns="http://www.w3.org/2000/svg" width="36.515" height="25.914" viewBox="0 0 36.515 25.914">
  <path id="329" data-name="329" d="M1051.913,868.009h-4.122v-4.123h4.122Zm0,5.3h-4.122v-4.122h4.122Zm-5.374,7.657h-15.165v-4.123h15.165Zm-16.417-12.957H1026v-4.123h4.123Zm0,5.3H1026v-4.122h4.123Zm1.325-4.122h4.123v4.122h-4.123Zm0-5.3h4.123v4.123h-4.123Zm5.448,5.3h4.123v4.122H1036.9Zm0-5.3h4.123v4.123H1036.9Zm5.448,5.3h4.123v4.122h-4.123Zm0-5.3h4.123v4.123h-4.123Zm10.466-5.3H1025.1a4.4,4.4,0,0,0-4.4,4.4V880.1a4.405,4.405,0,0,0,4.4,4.4h27.706a4.4,4.4,0,0,0,4.405-4.4V862.99A4.4,4.4,0,0,0,1052.809,858.586Z" transform="translate(-1020.699 -858.586)" fill="#cfc9d7"/>
</svg>
