<svg xmlns="http://www.w3.org/2000/svg" width="31.383" height="31.39" viewBox="0 0 31.383 31.39">
  <g id="组_183" data-name="组 183" transform="translate(-154 -827)">
    <g id="mute" transform="translate(154 827)">
      <path id="mic_off" data-name="mic_off" d="M196.088,1.127A1.122,1.122,0,0,0,195.46.118a1.092,1.092,0,0,0-1.188.135l-9.931,7.913,11.747,11.747Z" transform="translate(-171.43 0)" fill="#cfc9d7"/>
      <path id="mic_off_1" data-name="mic_off_1" d="M31.1,29.538,1.958.395A1.121,1.121,0,0,0,.373,1.98L7.425,9.035H6.769a2.278,2.278,0,0,0-2.242,2.242v8.967a2.248,2.248,0,0,0,2.242,2.242h5.2l10.917,8.72a1.143,1.143,0,0,0,.695.247,1.312,1.312,0,0,0,.493-.112,1.122,1.122,0,0,0,.628-1.009V26.312l4.811,4.811A1.122,1.122,0,1,0,31.1,29.538Z" transform="translate(-0.045 -0.062)" fill="#cfc9d7"/>
    </g>
  </g>
</svg>
